<svg width="160" height="32" fill="none" xmlns="http://www.w3.org/2000/svg"><path fill-rule="evenodd" clip-rule="evenodd" d="M25.075 0H2.505C.674 0 0 .675 0 2.505v22.084l.027.578c.04.4.05.788.422 1.227.135.113.274.221.416.325l.574.266 11.113 4.656c.578.264.818.368 1.237.358h.003c.42.009.66-.094 1.238-.358l11.113-4.655.573-.267.417-.325c.371-.441.38-.829.422-1.227.018-.192.027-.385.027-.578V2.506C27.582.675 26.906 0 25.077 0h-.002z" fill="#fff"/><path fill-rule="evenodd" clip-rule="evenodd" d="M21.017 12.371c-.712.764-2.453 1.78-3.234 2.193.171-1.663.514-5.056.514-5.322 0-.334.25-1.89 1.222-2.724.778-.667 3.122-1.87 4.196-2.39-.194 2.103-.615 6.442-.744 6.975a8.158 8.158 0 01-1.758 3.46c-.884 1.035-2.928 2.476-3.96 3.046.057-.064.15-.239.27-.636a2.657 2.657 0 000-1.41c.89-.507 2.873-1.737 3.69-2.606.816-.868 1.512-2.445 1.758-3.126-.355.529-1.242 1.776-1.954 2.54zm-3.82 5.268c.012.005.03-.002.056-.03l-.055.03zm-8.446-.124c.103-2.54 1.016-9.955 1.46-13.345C9.06 4.523 7 5.666 7 5.666c-.435.242-1.122.686-2.02 1.91-.55.75-1.586 9.379-.88 11.79.704 2.411 3.894 4.822 7.158 5.156 2.612.267 4.875-.612 5.68-1.085H14.93c-2.446 0-6.308-2.746-6.18-5.922zm2.082.977c1.15.807 4.124 2.05 6.827.57 3.054-1.67 3.639-2.666 3.914-3.133.03-.05.055-.094.08-.132.207-.316.79-1.502 1.018-2.086-.054 1.041-.22 3.318-.455 4.098a7.293 7.293 0 01-.706 1.626c-.304.537-1.616 2.08-3.24 2.681-1.625.603-3.64.251-4.446 0 .868.077 2.853.13 3.466-.259.12-.076.187-.132.234-.17a.807.807 0 01.052-.042c.14-.098.07-.232-.063-.216-.682.113-2.375.303-3.689.169-1.313-.135-2.265-1.286-2.577-1.844.518.409 1.904 1.226 3.31 1.226 1.407 0 1.81-.113 1.865-.179.056-.066.046-.15-.05-.176a2.713 2.713 0 00-.242-.012c-.632-.02-2.335-.074-3.293-.512-1.167-.532-1.823-1.295-2.005-1.61z" fill="url(#paint0_linear_120_324)"/><path d="M43.582 0h1v32h-1V0z" fill="#fff" fill-opacity=".15"/><path d="M64.502 29.86h-3.92V2.18h8.8c.853 0 1.613.107 2.28.32.693.187 1.24.6 1.64 1.24.4.64.6 1.627.6 2.96v7.2c0 1.547-.44 2.693-1.32 3.44-.88.72-1.947 1.08-3.2 1.08h-1.24c1.226-1.093 1.84-2.92 1.84-5.48V7.78c0-.72-.147-1.173-.44-1.36-.267-.213-.6-.32-1-.32h-4.04v23.76zm2.44-10.04l-.12-.76c-.08-.507-.254-1.093-.52-1.76a6.237 6.237 0 00-1.2-1.88 5.764 5.764 0 001.2-1.84c.266-.667.44-1.253.52-1.76l.12-.76.12.76c.08.507.253 1.093.52 1.76a5.76 5.76 0 001.2 1.84 6.234 6.234 0 00-1.2 1.88c-.267.667-.44 1.253-.52 1.76l-.12.76zm19.596 10.04h-3.96l-.84-5.48h-2.44l-1.16-2.36-1.2 7.84h-3.96l4.56-27.68h4.44l4.56 27.68zm-5.36-9.4l-1.4-9.28-1.4 9.28h2.8zm18.432 9.4h-3.92V19.42c0-.693-.16-1.187-.48-1.48-.293-.32-.627-.48-1-.48h-2.48v12.4h-3.92V2.18h6.84c1.28 0 2.413.44 3.4 1.32 1.013.853 1.533 2.213 1.56 4.08v3.52c0 .8-.107 1.467-.32 2a4.36 4.36 0 01-.8 1.28c-.293.32-.6.56-.92.72a4.12 4.12 0 01-.8.32l-.32.08.32.08c.213.027.48.133.8.32.32.16.627.4.92.72.32.32.587.747.8 1.28.213.533.32 1.187.32 1.96v10zm-5.4-16.32c.373 0 .707-.16 1-.48.32-.32.48-.813.48-1.48V8.26c0-.72-.187-1.253-.56-1.6-.347-.373-.72-.56-1.12-.56h-2.28v7.44h2.48zm20.024 16.32h-3.96l-.84-5.48h-2.44l-1.16-2.36-1.2 7.84h-3.96l4.56-27.68h4.44l4.56 27.68zm-5.36-9.4l-1.4-9.28-1.4 9.28h2.8zm13.391 9.4h-6.84V2.18h6.84c.854 0 1.654.187 2.4.56.774.373 1.387.96 1.84 1.76.48.8.72 1.827.72 3.08v16.88c0 1.253-.24 2.28-.72 3.08a4.488 4.488 0 01-1.84 1.76 5.29 5.29 0 01-2.4.56zm-.64-3.92c1.12 0 1.68-.72 1.68-2.16V8.26c0-.72-.186-1.253-.56-1.6-.346-.373-.72-.56-1.12-.56h-3.64l.2.08c.134.08.294.213.48.4.187.187.347.44.48.76.134.32.2.733.2 1.24v14.84c0 .533-.066.96-.2 1.28a2.32 2.32 0 01-.48.76c-.186.187-.346.307-.48.36l-.2.12h3.64zm11.707 3.92h-3.92V2.18h3.92v27.68zm8.887.32h-1.88a5.295 5.295 0 01-2.4-.56c-1.707-.853-2.56-2.467-2.56-4.84v-4.32h3.92v3.64c0 .72.173 1.267.52 1.64.373.347.773.52 1.2.52h.56c1.12 0 1.68-.72 1.68-2.16v-2.84c-.027-1.173-.493-2.12-1.4-2.84l-4.24-3.2c-1.493-1.2-2.24-2.68-2.24-4.44V7.26c0-2.373.853-3.987 2.56-4.84.747-.4 1.547-.6 2.4-.6h1.88c.853 0 1.667.2 2.44.6 1.68.853 2.52 2.467 2.52 4.84v4.76h-3.92V7.9c0-.693-.187-1.227-.56-1.6-.347-.373-.72-.56-1.12-.56h-.56c-.427 0-.827.187-1.2.56-.347.373-.52.907-.52 1.6v1.92c0 1.12.48 2.067 1.44 2.84l4.24 3.2c1.467 1.2 2.2 2.68 2.2 4.44v4.48c0 2.373-.84 3.987-2.52 4.84a5.544 5.544 0 01-2.44.56zm16.916-.32h-9.88V2.18h9.64V6.1h-5.72v6.8h4.4v3.92h-4.4v9.12h5.96v3.92z" fill="#fff"/><defs><linearGradient id="paint0_linear_120_324" x1="13.789" y1="4.129" x2="13.789" y2="24.571" gradientUnits="userSpaceOnUse"><stop stop-color="#00D1FF"/><stop offset=".65" stop-color="#E8116E"/><stop offset="1" stop-color="#6A24DB"/></linearGradient></defs></svg>